# xmcd
#
# Track frame offsets: 
#        150
#        13220
#        29812
#        47185
#        64540
#        87735
#        101752
#        115440
#        135132
#        150715
#
# Disc length: 2233 seconds
#
# Revision: 0
# Processed by: cddbd v1.5.1PL2 Copyright (c) Steve Scherf et al.
# Submitted via: ExactAudioCopy v0.95a5
#
DISCID=8908b70a
DTITLE=Green On Red - Scapegoats
DYEAR=1991
DGENRE=Alternative
TTITLE0=A guy like me
TTITLE1=Little things in life
TTITLE2=Two lovers (waitin' to die)
TTITLE3=Gold in the graveyard
TTITLE4=Hector's out
TTITLE5=Shed a tear (for the lonesome)
TTITLE6=Blowfly
TTITLE7=Sun goes down
TTITLE8=Where the rooster crows
TTITLE9=Baby loves her gun
EXTD=
EXTT0=
EXTT1=
EXTT2=
EXTT3=
EXTT4=
EXTT5=
EXTT6=
EXTT7=
EXTT8=
EXTT9=
PLAYORDER=
